<svg width="336" height="240" viewBox="0 0 336 240" fill="none" xmlns="http://www.w3.org/2000/svg">
<path d="M170.976 -55.1852C198.543 -53.7985 224.871 -43.308 245.837 -25.3565C266.803 -7.40501 281.223 16.9935 286.839 44.0176C292.454 71.0418 288.948 99.1653 276.869 123.983C264.79 148.802 244.821 168.913 220.089 181.167C195.357 193.421 167.259 197.126 140.196 191.702C113.133 186.277 88.6327 172.03 70.5334 151.191C52.4341 130.353 41.7576 104.099 40.176 76.5431C38.5945 48.987 46.1972 21.6845 61.7935 -1.08815L113.273 34.1685C105.478 45.5501 101.678 59.1956 102.469 72.9679C103.259 86.7402 108.595 99.8614 117.641 110.276C126.687 120.691 138.932 127.812 152.458 130.523C165.984 133.234 180.027 131.382 192.388 125.258C204.749 119.133 214.729 109.082 220.766 96.6782C226.803 84.2743 228.555 70.2184 225.749 56.712C222.942 43.2055 215.735 31.0114 205.256 22.0394C194.778 13.0674 181.619 7.82436 167.841 7.13133L170.976 -55.1852Z" fill="#133996"/>
</svg>
