<svg xmlns="http://www.w3.org/2000/svg" viewBox="0 0 290.29 715.99"><defs><style>.cls-1{fill:none;stroke:#e2ccaf;stroke-miterlimit:10;}</style></defs><g id="Layer_2" data-name="Layer 2"><g id="strokes"><path class="cls-1" d="M287.18,571.1c-11.2-6.05-13.28-20.38-15.37-29.42-3.51-15.18-4.74-30.67-5.34-46a404.86,404.86,0,0,1,1.2-51.3c1.21-13.66,5.2-27.54,4.57-41.23-1.65-50-72.85-60.92-74.58-102.76-.53-25.16,14.65-50.57,27.68-73.32,14.2-24.8,30.93-49.21,41.07-75.13C285.26,103.68,285.9,49.72,286,0"/><path class="cls-1" d="M287.42,582.21c-24.84-12-30.43-62.29-33-83.31a348.13,348.13,0,0,1-1.57-48.85c.57-14.84,4.46-29.87,3.93-44.67-1-50.24-72.5-62.62-74.36-105-.45-24.35,14.21-49,26.84-71,14.41-25.12,31.56-49.81,41.72-76.11,9-23.34,11.75-48.59,14.83-72.67a649.79,649.79,0,0,0,5-80.62"/><path class="cls-1" d="M287.65,593.31c-34.94-16.33-40.9-63.41-45.22-90.09a313.86,313.86,0,0,1-4.1-53.48c.17-15.57,4.49-31.52,2.85-47-3.73-45.4-72.44-60.89-74-102.3-.39-24.43,14.44-48.94,27.26-71,14.58-25.06,31.93-49.78,41.63-76.18,8.25-22.46,10.45-46.73,13.59-69.81A635.66,635.66,0,0,0,255.63.06"/><path class="cls-1" d="M287.88,604.42C233.49,576,225.66,493.75,223.71,448c-.09-13.42,2.93-26.85,2.35-40.22-1.16-48.05-72.41-64.33-74-107.3-.36-24.73,14.92-49.4,28.05-71.67,14.83-25.14,32.56-50.1,41.5-76.82,7.62-22.78,9.42-47.28,12.61-70.58A622.77,622.77,0,0,0,240.45.09"/><path class="cls-1" d="M288.11,615.53c-60.22-28-74-111.87-78.73-160.36-1-15.85,2.27-31.6,1.41-47.36-1.57-47.87-72.34-64.32-73.88-107.33-.34-24.7,14.84-49.5,27.86-71.73,14.74-25.17,32.4-50.16,41.58-76.83,7.82-22.73,9.9-47.32,13-70.59A628.42,628.42,0,0,0,225.27.13"/><path class="cls-1" d="M288.34,626.64C219.76,598.82,200.77,505.73,194.66,453c-1.22-15.58,2.11-31.13.82-46.6-2.62-46.17-72.08-63.3-73.8-105.89-.49-24,13.82-48.07,26.31-69.78,15.12-26.3,33.8-52.34,43.4-80.12C208,102.65,209.94,49.37,210.09.16"/><path class="cls-1" d="M288.57,637.74c-75.26-26-101.39-129.63-108.64-185.42-1.49-15.36,1.64-30.61.33-45.86-2.88-46.43-72.1-63.33-73.76-105.9-.5-24.86,14.56-50.1,27.44-72.54,14.62-25.48,32.2-50.61,42-77.39C193.55,102.74,195,49.45,194.9.19"/><path class="cls-1" d="M288.81,648.85c-82.09-26-112.35-131.16-123-190.3-2.51-17.9,1.06-35.6-.85-53.35-3.66-45.28-72.16-62.48-73.62-104.63-.36-25.19,14.4-50.37,27.37-73.21,14.17-25,31-49.52,41.36-75.56C179.2,103.59,179.83,50,179.72.22"/><path class="cls-1" d="M289,660c-88.49-25.24-126.71-138.81-138.27-201.59-2.68-17.86.91-35.4-.9-53.09C146.45,360,77.63,342.77,76.17,300.6c-.35-24.31,13.3-48.63,25.6-70.77,14.41-25.92,31.85-51.23,42.93-78.07,19.93-48.28,20-101.57,19.84-151.51"/><path class="cls-1" d="M289.27,671.07C195.92,646.79,144.65,520.29,135.08,454c-3.14-23.11,5.29-47.69-6.94-69.74C112.91,355.6,68.76,339.41,61.72,308c-6.81-53.1,59.4-118.73,73.67-173.14,13.34-44.11,14.09-89.62,14-134.59"/><path class="cls-1" d="M289.5,682.17c-100.35-24-159.58-156.95-169.59-227.66-3.21-23.71,5.52-48.95-7.65-71.46-15.73-28-59-44.14-65.76-75.22-6.5-53.22,58.27-118.5,73.66-172.44,14.3-44.18,14.13-90,14-135.08"/><path class="cls-1" d="M289.73,693.28C180.85,668.79,116.89,536.37,105.1,460.36c-3.81-25.65,6-53.47-8.6-77.73-16-27.67-58.71-43.95-65.26-74.9-6.1-53.64,58.08-118.85,74-172.94C119.81,90.85,119.1,45.24,119,.34"/><path class="cls-1" d="M290,704.39c-117-24.62-185-155-199.21-236.07-3.27-19.33-1.28-37.79-1.53-57.07a56.16,56.16,0,0,0-7.88-28c-15.8-28-59-44.43-65.32-75.67C10.26,253.74,73.23,189.13,90,135.3c15.26-44,13.94-89.89,13.84-134.93"/><path class="cls-1" d="M290.19,715.49C165.07,690.77,91.49,561,76,474.54c-3.68-21-1.83-41.22-2-62.24a57.67,57.67,0,0,0-8.4-29.46C49.53,355.12,7,338.58.84,307.45c-5.48-54.27,56.94-118.72,74.23-172.7C90.6,91,88.73,45.23,88.63.4"/></g></g></svg>